<svg width="20" height="20" viewBox="0 0 24 24" fill="none" xmlns="http://www.w3.org/2000/svg">
<g clip-path="url(#clip0_1_3)">
<path d="M22.2656 9.77814C22.2423 9.6733 22.1968 9.57468 22.1321 9.48896C22.0674 9.40324 21.9851 9.33241 21.8906 9.28126L19.6594 8.04376C19.5406 7.80001 19.4094 7.56564 19.2656 7.34064L19.3031 4.79064C19.304 4.68368 19.2828 4.5777 19.2408 4.4793C19.1989 4.38091 19.1371 4.29221 19.0594 4.21876C17.9484 3.21148 16.6346 2.45386 15.2063 1.99689C15.1037 1.96491 14.9955 1.95505 14.8888 1.96798C14.7822 1.98091 14.6795 2.01633 14.5875 2.07189L12.4031 3.38439C12.1313 3.37501 11.8687 3.37501 11.5969 3.38439L9.4125 2.07189C9.32054 2.01633 9.21784 1.98091 9.11117 1.96798C9.00451 1.95505 8.89632 1.96491 8.79375 1.99689C7.36356 2.45421 6.04916 3.21535 4.94062 4.22814C4.8622 4.29906 4.79986 4.38596 4.75782 4.48298C4.71577 4.58001 4.69499 4.68491 4.69687 4.79064L4.74375 7.34064C4.59375 7.56564 4.4625 7.80001 4.33125 8.04376L2.10937 9.28126C2.01376 9.33086 1.93045 9.40123 1.86556 9.4872C1.80068 9.57318 1.75585 9.67259 1.73437 9.77814C1.41559 11.2422 1.41559 12.7578 1.73437 14.2219C1.75766 14.3267 1.80319 14.4253 1.86789 14.5111C1.93259 14.5968 2.01494 14.6676 2.10937 14.7188L4.34062 15.9563C4.46024 16.1988 4.59487 16.4336 4.74375 16.6594L4.69687 19.2094C4.69602 19.3163 4.71722 19.4223 4.75916 19.5207C4.8011 19.6191 4.86287 19.7078 4.94062 19.7813C6.05313 20.7864 7.3665 21.5438 8.79375 22.0031C8.89632 22.0351 9.00451 22.045 9.11117 22.032C9.21784 22.0191 9.32054 21.9837 9.4125 21.9281L11.5969 20.6156H12.4031L14.5969 21.9281C14.7109 22.0031 14.8448 22.0423 14.9813 22.0406C15.0575 22.0373 15.1331 22.0248 15.2063 22.0031C16.6364 21.5458 17.9508 20.7847 19.0594 19.7719C19.1378 19.701 19.2001 19.6141 19.2422 19.517C19.2842 19.42 19.305 19.3151 19.3031 19.2094L19.2656 16.6594C19.4063 16.4344 19.5375 16.2 19.6688 15.9563L21.9 14.7188C21.9931 14.6671 22.0739 14.596 22.137 14.5102C22.2001 14.4245 22.244 14.3261 22.2656 14.2219C22.5844 12.7578 22.5844 11.2422 22.2656 9.77814ZM16.125 12C16.125 12.8159 15.8831 13.6134 15.4298 14.2917C14.9766 14.9701 14.3323 15.4988 13.5786 15.811C12.8248 16.1232 11.9954 16.2049 11.1953 16.0458C10.3951 15.8866 9.66008 15.4937 9.08318 14.9168C8.50629 14.3399 8.11342 13.6049 7.95426 12.8048C7.7951 12.0046 7.87679 11.1752 8.189 10.4214C8.50121 9.6677 9.02992 9.02346 9.70827 8.5702C10.3866 8.11694 11.1842 7.87501 12 7.87501C13.094 7.87501 14.1432 8.30961 14.9168 9.0832C15.6904 9.85679 16.125 10.906 16.125 12Z" fill="white"/>
</g>
<defs>
<clipPath id="clip0_1_3">
<rect width="24" height="24" fill="white"/>
</clipPath>
</defs>
</svg>
